PathFileType	4	(X/Y/Z)	/Users/itak/Documents/Research/Walk-IL/dataset/trc/00320_00011.trc
DataRate	CameraRate	NumFrames	NumMarkers	Units	OrigDataRate	OrigDataStartFrame	OrigNumFrames
100.000000	100.000000	4	54	mm	100.000000	471	539
Frame#	Time	RPSI			LPSI			L3			STRN			T10			C7			CLAV			RBAK			LBAK			LSHO			LUPA			LAEL			LAOL			LWTS			LWPS			LFRA			LIFD			LHPS			RSHO			RUPA			RAEL			RAOL			RWTS			RWPS			RFRA			RIFD			RHTS			RHPS			RBHD			LFHD			RFHD			LBHD			LHIP			RHIP			RASI			LASI			LKNE			LTHI			LANK			LTIP			LTOE			LMT1			LMT5			LHEE			RKNE			RTHI			RANK			RTIP			RTOE			RMT1			RMT5			RHEE			LHTS			*53			
		X1	Y1	Z1	X2	Y2	Z2	X3	Y3	Z3	X4	Y4	Z4	X5	Y5	Z5	X6	Y6	Z6	X7	Y7	Z7	X8	Y8	Z8	X9	Y9	Z9	X10	Y10	Z10	X11	Y11	Z11	X12	Y12	Z12	X13	Y13	Z13	X14	Y14	Z14	X15	Y15	Z15	X16	Y16	Z16	X17	Y17	Z17	X18	Y18	Z18	X19	Y19	Z19	X20	Y20	Z20	X21	Y21	Z21	X22	Y22	Z22	X23	Y23	Z23	X24	Y24	Z24	X25	Y25	Z25	X26	Y26	Z26	X27	Y27	Z27	X28	Y28	Z28	X29	Y29	Z29	X30	Y30	Z30	X31	Y31	Z31	X32	Y32	Z32	X33	Y33	Z33	X34	Y34	Z34	X35	Y35	Z35	X36	Y36	Z36	X37	Y37	Z37	X38	Y38	Z38	X39	Y39	Z39	X40	Y40	Z40	X41	Y41	Z41	X42	Y42	Z42	X43	Y43	Z43	X44	Y44	Z44	X45	Y45	Z45	X46	Y46	Z46	X47	Y47	Z47	X48	Y48	Z48	X49	Y49	Z49	X50	Y50	Z50	X51	Y51	Z51	X52	Y52	Z52	X53	Y53	Z53	X54	Y54	Z54	

472	4.71	827.6578979492188	966.41064453125	126.8572158813477	826.5438232421875	967.4269409179688	-2.528007984161377	820.1840209960938	1026.110473632812	64.58002471923828	1037.486206054688	1218.506958007812	53.88191223144531	799.5263061523438	1144.851928710938	50.21971893310547	826.73974609375	1394.831787109375	34.60898971557617	985.457275390625	1339.123657226562	47.74251937866211	784.8048706054688	1253.309326171875	103.2407760620117	825.197021484375	1357.484008789062	-66.29110717773438	913.5986938476562	1375.529663085938	-118.2455673217773	888.7437744140625	1258.452880859375	-188.1902618408203	876.0054931640625	1054.558959960938	-199.0445404052734	819.582275390625	1048.960571289062	-134.9778900146484	916.674560546875	791.0939331054688	-175.0458679199219	870.3173828125	796.4451904296875	-226.0187835693359	869.1780395507812	950.818115234375	-209.7287292480469	872.7535400390625	635.3026733398438	-177.1004333496094	846.721435546875	729.0755004882812	-221.5012817382812	880.080322265625	1382.845703125	200.2583160400391	873.7889404296875	1318.932739257812	265.2626953125	960.4027709960938	1069.679809570312	327.2256774902344	923.8685302734375	1038.076171875	246.1944274902344	1170.011596679688	936.5631103515625	276.9645385742188	1151.791870117188	901.7264404296875	343.1303100585938	1014.004028320312	1020.417236328125	339.0850524902344	1287.526489257812	808.8642578125	288.6748352050781	1253.124755859375	873.0890502929688	291.1309204101562	1212.786987304688	844.0563354492188	338.1804504394531	851.4495849609375	1587.062622070312	125.0587539672852	1014.535339355469	1629.51708984375	1.972318291664124	1007.36083984375	1627.434326171875	102.958137512207	835.538330078125	1580.268432617188	-18.98672103881836	916.1456909179688	913.447265625	-105.4547424316406	910.3997802734375	915.7764282226562	235.9682769775391	1012.815124511719	949.693359375	192.6024322509766	1034.568603515625	947.4542846679688	-46.01132583618164	1004.496826171875	459.6856384277344	-94.04293060302734	992.7841186523438	599.7373046875	-104.6307678222656	912.0377197265625	43.48002624511719	-89.62862396240234	960.8107299804688	243.9813385009766	-104.6438293457031	1121.264282226562	31.51017189025879	-46.53779983520508	1053.210693359375	19.18438720703125	-0.1709306091070175	1035.551635742188	33.25051116943359	-112.0884323120117	882.896728515625	37.36817169189453	-20.61717414855957	962.3381958007812	451.843994140625	196.8806610107422	991.2874145507812	710.7196044921875	230.383544921875	899.3284912109375	44.93434906005859	153.2925720214844	968.7005004882812	332.781494140625	181.4788970947266	1092.137451171875	32.05236053466797	105.9924697875977	1035.973754882812	27.82691955566406	63.43484115600586	997.439697265625	28.87662887573242	174.9647064208984	848.4199829101562	45.00813293457031	106.6082534790039	900.4429321289062	711.0538330078125	-192.0776062011719	nan	nan	nan	
473	4.72	829.844970703125	966.6954345703125	126.4496459960938	828.5404052734375	967.8907470703125	-2.857062339782715	821.8938598632812	1026.281616210938	64.2633056640625	1039.16943359375	1218.85009765625	53.03531265258789	801.3057861328125	1144.988159179688	49.91977691650391	828.2330932617188	1394.950805664062	34.15909957885742	987.0005493164062	1339.395385742188	46.99576187133789	786.4427490234375	1253.439697265625	102.8731384277344	826.5433959960938	1357.57958984375	-66.77790069580078	914.8168334960938	1375.781372070312	-118.8395919799805	890.8099365234375	1258.591796875	-188.8353271484375	879.986572265625	1054.5244140625	-200.1823120117188	823.0873413085938	1048.49365234375	-136.5529327392578	922.397216796875	791.4412841796875	-175.9365386962891	876.4452514648438	796.4795532226562	-227.2857208251953	874.0304565429688	950.7744750976562	-210.8671569824219	879.4535522460938	635.3109741210938	-178.5682678222656	853.2608032226562	728.9779052734375	-223.0941619873047	881.9107055664062	1382.979248046875	199.7170257568359	875.714599609375	1318.961303710938	264.6480102539062	961.4197998046875	1069.10791015625	325.4295349121094	925.1710205078125	1038.10400390625	244.1675720214844	1170.429809570312	934.750244140625	275.3488159179688	1151.720581054688	899.8411865234375	341.3410339355469	1014.727172851562	1019.484497070312	337.2972106933594	1286.949951171875	806.104248046875	287.1279296875	1253.015625	870.5969848632812	289.5745544433594	1212.328369140625	841.6969604492188	336.3502197265625	852.85595703125	1587.060791015625	124.3792724609375	1016.015014648438	1629.751342773438	1.498276352882385	1008.760192871094	1627.614135742188	102.465087890625	837.1174926757812	1580.354125976562	-19.66703224182129	917.941650390625	913.9901733398438	-105.9979476928711	912.7158203125	915.9320678710938	235.4112396240234	1015.133666992188	950.0008544921875	191.7393035888672	1036.469848632812	947.9307861328125	-46.74924468994141	1002.337951660156	460.3179931640625	-94.77855682373047	992.392578125	600.008544921875	-104.4237594604492	911.8412475585938	43.49304962158203	-89.58042907714844	959.48291015625	243.9856567382812	-105.041015625	1121.08349609375	31.61635971069336	-46.60025787353516	1053.031127929688	19.31416702270508	-0.2177566587924957	1035.346557617188	33.29148483276367	-112.1222839355469	882.6851806640625	37.36790084838867	-20.57220268249512	962.2741088867188	452.1030883789062	196.1674041748047	992.6312866210938	710.6474609375	229.5183258056641	899.3726196289062	44.98343276977539	153.2366790771484	968.4986572265625	332.9930725097656	181.1236877441406	1092.123413085938	32.11554718017578	106.0058670043945	1035.970581054688	27.84587860107422	63.44552230834961	997.4287719726562	28.90200805664062	174.9591369628906	848.3857421875	45.06093978881836	106.504753112793	906.9306030273438	711.5072631835938	-193.2711486816406	nan	nan	nan	
474	4.73	832.0274047851562	966.9791870117188	126.0257949829102	830.5400390625	968.37890625	-3.222841262817383	823.6815185546875	1026.395385742188	63.96101760864258	1040.796264648438	1219.197509765625	52.190673828125	803.0676879882812	1145.062255859375	49.71017456054688	829.625	1395.019287109375	33.77079391479492	988.4660034179688	1339.671142578125	46.26701354980469	787.9605712890625	1253.51904296875	102.5509262084961	827.769775390625	1357.630004882812	-67.19691467285156	915.875244140625	1376.011108398438	-119.3836898803711	892.7274780273438	1258.719970703125	-189.423828125	883.9767456054688	1054.494750976562	-201.2699279785156	826.63818359375	1047.9775390625	-138.0589447021484	928.5350341796875	791.8920288085938	-176.8268280029297	882.9326782226562	796.520263671875	-228.5011291503906	879.0145874023438	950.7291870117188	-211.9690399169922	886.8584594726562	635.3125610351562	-180.013671875	860.3009033203125	728.8526611328125	-224.6343231201172	883.6614379882812	1383.078125	199.20751953125	877.6058349609375	1318.977783203125	264.1190490722656	962.2374877929688	1068.452392578125	323.6328430175781	926.1500854492188	1038.1318359375	242.0970764160156	1170.453857421875	932.5419311523438	273.6938171386719	1151.216186523438	897.6041259765625	339.5066223144531	1015.205505371094	1018.41552734375	335.4731140136719	1285.745727539062	802.766845703125	285.4838256835938	1252.387573242188	867.5464477539062	287.9594116210938	1211.327270507812	838.8671875	334.4520263671875	854.223876953125	1587.0810546875	123.6903839111328	1017.433410644531	1629.91455078125	0.9683815836906433	1010.128540039062	1627.76171875	101.9086685180664	838.6104736328125	1580.426513671875	-20.34795761108398	919.7265014648438	914.524658203125	-106.5594329833984	914.94921875	916.0482177734375	234.8331756591797	1017.415161132812	950.2586059570312	190.9157562255859	1038.351196289062	948.3327026367188	-47.46012115478516	1000.119567871094	460.6702880859375	-95.55369567871094	991.5573120117188	600.2535400390625	-104.4815902709961	911.6799926757812	43.44765090942383	-89.60191345214844	958.1162719726562	243.9773101806641	-105.5221633911133	1120.951538085938	31.74241828918457	-46.6657600402832	1052.923217773438	19.42425346374512	-0.2804662883281708	1035.20361328125	33.3055419921875	-112.1775588989258	882.5135498046875	37.33237075805664	-20.59487152099609	962.1512451171875	452.340087890625	195.5122528076172	993.8643188476562	710.5418701171875	228.7004547119141	899.4100341796875	45.02891159057617	153.1739044189453	968.2720947265625	333.1553039550781	180.8206481933594	1092.108642578125	32.17500686645508	106.0199813842773	1035.966186523438	27.85839080810547	63.4543342590332	997.4166870117188	28.92838287353516	174.9508819580078	848.3427734375	45.0927734375	106.3952331542969	913.9718017578125	712.0184936523438	-194.4689788818359	nan	nan	nan	
475	4.74	834.199462890625	967.2437133789062	125.5815887451172	832.54833984375	968.8624877929688	-3.623529672622681	825.5718994140625	1026.438598632812	63.66237640380859	1042.366577148438	1219.522583007812	51.3578987121582	804.796142578125	1145.056640625	49.56601715087891	830.9253540039062	1395.027465820312	33.43792343139648	989.8629760742188	1339.931518554688	45.56381607055664	789.376220703125	1253.535278320312	102.2637634277344	828.8885498046875	1357.616821289062	-67.55300140380859	916.8001098632812	1376.193115234375	-119.8758316040039	894.5025634765625	1258.806274414062	-189.9567718505859	887.9478149414062	1054.453857421875	-202.3152160644531	830.2135009765625	1047.393310546875	-139.4914093017578	935.0628662109375	792.431396484375	-177.7184753417969	889.7447509765625	796.5494995117188	-229.6596832275391	884.0955200195312	950.6646728515625	-213.0409851074219	894.988037109375	635.3284301757812	-181.424072265625	867.817138671875	728.678955078125	-226.1003570556641	885.3251953125	1383.1181640625	198.7323303222656	879.44970703125	1318.948608398438	263.6669311523438	962.8792724609375	1067.697143554688	321.8585510253906	926.82861328125	1038.11962890625	240.0125732421875	1170.1044921875	929.956298828125	272.0098266601562	1150.3212890625	895.0403442382812	337.6488647460938	1015.463684082031	1017.200561523438	333.635009765625	1283.9423828125	798.8868408203125	283.7244873046875	1251.266357421875	863.9613037109375	286.2801818847656	1209.8154296875	835.5957641601562	332.5049133300781	855.5475463867188	1587.1162109375	122.9944610595703	1018.791931152344	1630.002319335938	0.3906903862953186	1011.464111328125	1627.870239257812	101.2995223999023	840.0147705078125	1580.477783203125	-21.02497291564941	921.4951782226562	915.0189819335938	-107.144416809082	917.1100463867188	916.1206665039062	234.2383728027344	1019.645141601562	950.4327392578125	190.1433258056641	1040.213256835938	948.6273803710938	-48.15938949584961	997.9442749023438	460.7015686035156	-96.39133453369141	990.389404296875	600.4495849609375	-104.8516693115234	911.53955078125	43.34941864013672	-89.68967437744141	956.7601928710938	243.9564971923828	-106.0686187744141	1120.851928710938	31.87068939208984	-46.73161315917969	1052.8671875	19.50652885437012	-0.3522057235240936	1035.109008789062	33.28828430175781	-112.2489700317383	882.3572998046875	37.27107620239258	-20.6858024597168	961.9951782226562	452.5372619628906	194.9321899414062	995.014892578125	710.4199829101562	227.9664001464844	899.4348754882812	45.06742477416992	153.1079559326172	968.019775390625	333.265380859375	180.5660552978516	1092.090942382812	32.23032760620117	106.0365600585938	1035.958251953125	27.86585807800293	63.46200561523438	997.4029541015625	28.95281982421875	174.9426116943359	848.2911376953125	45.10190963745117	106.2866516113281	921.5427856445312	712.5606689453125	-195.6571044921875	nan	nan	nan	
